HIERARCHY
ROOT Hips
{
  OFFSET 56.2251 92.5799 40.8153
  CHANNELS 6 Xposition Yposition Zposition Zrotation Xrotation Yrotation
  JOINT RightUpLeg
  {
    OFFSET -8.9458 -8.66707 0.101652
    CHANNELS 3 Zrotation Xrotation Yrotation
    JOINT RightLeg
    {
      OFFSET 0 -44.4227 1.3727
      CHANNELS 3 Zrotation Xrotation Yrotation
      JOINT RightFoot
      {
        OFFSET 0.253549 -42.0924 -1.46059
        CHANNELS 3 Zrotation Xrotation Yrotation
        JOINT RightToes
        {
          OFFSET 0.04 -4.41509 8.4991
          CHANNELS 3 Zrotation Xrotation Yrotation
          End Site
          {
            OFFSET -0.08 -0.137448 9.77979
          }
        }
      }
    }
  }
  JOINT Spine
  {
    OFFSET 0 11.8905 0
    CHANNELS 3 Zrotation Xrotation Yrotation
    JOINT Spine1
    {
      OFFSET 0 25.6574 0.127663
      CHANNELS 3 Zrotation Xrotation Yrotation
      JOINT HEad
      {
        OFFSET 0 8.73416 0.011341
        CHANNELS 3 Zrotation Xrotation Yrotation
        End Site
        {
          OFFSET -0.29 12.7742 2.51395
        }
      }
      JOINT LeftShoulder1
      {
        OFFSET 8.99 -0.362252 -0.22
        CHANNELS 3 Zrotation Xrotation Yrotation
        JOINT LeftArm
        {
          OFFSET 10.2827 -0.00338 0.322123
          CHANNELS 3 Zrotation Xrotation Yrotation
          JOINT LeftForeArm
          {
            OFFSET 32.7669 0.099144 -1.42434
            CHANNELS 3 Zrotation Xrotation Yrotation
            JOINT LeftHand
            {
              OFFSET 27.5643 0.085362 1.02216
              CHANNELS 3 Zrotation Xrotation Yrotation
              End Site
              {
                OFFSET 16.7443 -0.6 1.50291
              }
            }
          }
        }
      }
      JOINT RightShoulder
      {
        OFFSET -8.99 -0.362252 -0.22
        CHANNELS 3 Zrotation Xrotation Yrotation
        JOINT RightArm
        {
          OFFSET -10.2827 -0.00338 0.322123
          CHANNELS 3 Zrotation Xrotation Yrotation
          JOINT RightForeArm
          {
            OFFSET -32.8971 0.099144 -1.42434
            CHANNELS 3 Zrotation Xrotation Yrotation
            JOINT RightHand
            {
              OFFSET -27.4921 0.085362 1.02216
              CHANNELS 3 Zrotation Xrotation Yrotation
              End Site
              {
                OFFSET -16.6312 -0.6 1.50291
              }
            }
          }
        }
      }
    }
  }
  JOINT LeftUpLeg
  {
    OFFSET 8.9458 -8.66707 0.101652
    CHANNELS 3 Zrotation Xrotation Yrotation
    JOINT LeftLeg
    {
      OFFSET 0 -44.4227 1.3727
      CHANNELS 3 Zrotation Xrotation Yrotation
      JOINT LeftFoot
      {
        OFFSET -0.253549 -42.0924 -1.46059
        CHANNELS 3 Zrotation Xrotation Yrotation
        JOINT LeftToes
        {
          OFFSET -0.04 -4.41509 8.4991
          CHANNELS 3 Zrotation Xrotation Yrotation
          End Site
          {
            OFFSET 0.08 -0.047448 9.77979
          }
        }
      }
    }
  }
}
MOTION
Frames:	20
Frame Time:	0.0166667
-0.0335516 95.7149 -112.281 -13.9855 -1.89809 -77.984 -12.793 0.561857 4.76813 12.4175 44.8906 -7.0499 19.1004 16.191 -4.00537 -28.3987 -30.8475 30.6051 1.27389 13.1163 2.01502 1.7723 26.3549 3.61594 -0.661276 -13.8768 27.382 0 0 -0 -55.4314 -25.8847 -30.2803 -19.7071 19.4317 -58.0106 9.72126 8.16191 -17.7352 22.1851 5.94774 21.925 42.7284 -10.0371 53.7863 3.14076 38.5032 138.924 7.20831 5.24563 -65.4368 18.3075 -13.8469 -6.73539 0.903717 29.1964 -14.7723 -25.1264 26.833 7.47963 -5.9109 -17.0952 -15.4548 
0.722597 95.2449 -111.487 -13.8775 -1.85161 -79.5703 -12.0553 2.31961 4.42499 12.8968 42.998 -6.28145 18.0803 14.1325 -3.47705 -29.5977 -32.1206 28.4618 0.762084 13.1645 2.66606 1.23257 26.372 4.85252 -0.450026 -13.9281 26.356 1.54487e-031 -2.78299e-015 3.18055e-015 -58.0728 -28.302 -31.5318 -19.9867 23.0566 -59.4655 10.9169 7.92254 -17.8122 21.1056 5.74963 22.0934 46.0492 -12.459 57.2713 3.75021 41.1536 138.084 6.4944 5.65608 -65.5737 19.007 -14.0714 -8.13051 0.404373 30.393 -11.7412 -22.3406 25.4367 6.33977 -5.7142 -16.8658 -14.351 
1.34245 94.5757 -110.459 -13.4452 -1.43956 -81.6519 -11.5358 4.07357 4.35121 12.5791 39.8484 -5.48927 15.014 10.5923 -2.44617 -30.6542 -32.7785 24.8568 0.494165 13.0305 3.4226 0.791642 26.0636 6.38894 -0.372037 -14.1492 25.3792 -7.95139e-016 3.77691e-015 -0 -62.0186 -32.9919 -32.2949 -21.4824 28.921 -61.7635 11.6855 7.70979 -18.4456 19.8632 5.49007 22.163 49.0987 -14.3284 61.0013 3.9324 43.0456 136.997 5.72112 6.13555 -65.2842 20.2301 -14.2329 -9.04128 -0.578458 31.5753 -5.55295 -18.5118 24.0027 4.9781 -5.56221 -16.883 -12.5459 
1.85566 93.7773 -109.172 -12.8057 -0.751657 -84.0732 -11.4125 5.59228 4.59181 11.8532 36.2695 -4.06708 11.178 5.36628 -1.35795 -29.5773 -30.8706 21.8616 0.549669 12.7692 4.21046 0.502187 25.5474 8.10783 -0.453801 -14.5278 24.4401 7.95139e-016 2.78299e-015 -0 -66.1054 -38.2484 -32.4649 -23.9752 35.2896 -64.5043 11.697 7.58969 -19.6322 18.3615 5.16402 22.1924 52.107 -15.8047 64.7541 3.818 44.4478 135.758 5.0096 6.58879 -64.7553 21.8098 -14.1631 -9.49644 -1.9456 32.5698 2.20458 -14.787 22.2169 3.71036 -5.12473 -16.3884 -9.60611 
2.33461 92.9417 -107.605 -12.179 0.130286 -86.6792 -11.7673 6.68532 5.22144 10.976 32.9452 -1.669 8.44672 -0.316402 -0.666515 -26.4293 -26.8759 20.9628 0.906717 12.4956 4.94464 0.413647 25.041 9.81731 -0.700131 -15.0241 23.6473 0 1.98785e-015 -0 -66.6485 -37.6544 -30.2778 -24.1079 35.3906 -70.5776 10.2483 7.7848 -20.9259 16.5198 4.77265 22.2653 55.3503 -17.0457 68.3117 3.64448 45.761 134.502 4.54566 6.88331 -64.3408 23.5084 -13.7234 -9.79618 -3.67014 33.3749 9.74917 -12.2677 19.9822 2.82053 -4.50947 -15.4984 -5.5516 
2.86257 92.1629 -105.754 -11.7416 1.1349 -89.3521 -12.5765 7.17734 6.28846 10.1919 30.2285 1.21737 7.59895 -4.35959 -0.370266 -23.763 -23.5424 21.1357 1.44387 12.3213 5.52826 0.54487 24.7452 11.2603 -1.0883 -15.5982 23.2497 0 5.36719e-015 -0 -65.6102 -36.3252 -27.2187 -24.2588 34.7913 -76.7698 7.75137 8.22355 -22.7652 14.379 4.33516 22.4491 58.8034 -18.0728 71.3729 3.61212 47.1931 133.387 4.38082 6.98409 -64.2392 25.086 -12.9471 -10.2319 -5.74954 34.106 15.841 -11.4942 17.5507 2.40313 -4.1298 -15.2276 -1.191 
3.50189 91.5173 -103.67 -11.4904 2.13117 -92.0326 -13.7253 6.8633 7.69962 9.68112 28.2961 3.84545 8.06777 -5.55204 -0.307404 -23.1766 -22.7937 21.1036 1.95706 12.2921 5.87686 0.821206 24.7285 12.1836 -1.548 -16.2733 23.5296 3.97569e-016 5.51627e-015 3.18055e-015 -62.8934 -35.0851 -23.6763 -24.5658 33.9418 -82.3511 4.29664 8.97723 -24.9248 12.1822 3.8969 22.7351 62.0401 -18.8453 73.5813 3.88612 48.7158 132.529 4.31175 7.02299 -64.2515 26.3649 -12.1066 -10.8116 -8.14515 34.9135 20.0883 -12.2577 15.209 2.33559 -4.13745 -16.1534 2.23395 
4.27766 91.0616 -101.467 -11.2432 2.90491 -94.7275 -15.0134 5.53033 9.15621 9.25079 27.2929 5.89993 9.07895 -4.22618 -0.423036 -24.3527 -24.2581 20.5468 2.26083 12.3652 5.94703 1.04756 24.8952 12.4536 -1.96451 -17.1761 24.6264 9.93923e-017 -5.96354e-016 -1.59028e-015 -58.546 -35.0615 -20.0151 -25.2373 33.424 -86.5859 0.543065 9.94655 -26.8911 10.3562 3.52951 22.9992 64.3926 -19.3162 74.6451 4.54872 50.1146 131.994 4.04368 7.19278 -63.9601 27.2745 -11.5919 -11.1952 -10.7226 35.8411 22.5956 -13.8759 13.4143 2.45455 -4.46578 -17.9588 3.62833 
5.18355 90.8486 -99.2561 -10.8001 3.26202 -97.4882 -16.1704 3.10312 10.1831 8.27432 27.2644 7.77545 10.4268 -1.62259 -0.684165 -25.9649 -26.2088 19.9501 2.31541 12.4501 5.73334 1.00623 25.0715 12.1029 -2.2141 -18.4549 26.5016 0 4.37326e-015 -0 -52.7629 -37.2049 -16.4717 -26.6493 33.6428 -88.5857 -2.45289 10.8127 -28.348 9.37836 3.32339 23.0921 65.1026 -19.4198 74.382 5.40798 50.9563 131.907 3.43831 7.5781 -63.1114 27.8452 -11.6446 -10.8718 -13.1273 36.7571 23.3194 -15.5409 12.941 2.70258 -5.15212 -20.3535 2.66593 
6.2066 90.911 -97.0933 -10.1163 3.16477 -100.366 -16.976 -0.267572 10.2792 6.16644 28.0287 10.182 12.3314 1.27066 -1.07779 -26.8437 -27.2981 20.1373 2.14981 12.4873 5.27704 0.623374 25.148 11.2529 -2.21817 -20.1199 29.0571 7.95139e-016 0 -0 -45.8492 -41.8653 -13.1027 -29.4665 34.4648 -87.1647 -3.98628 11.3039 -29.4787 9.53404 3.34634 23.0027 63.6062 -19.1455 72.7806 6.04961 50.7461 132.468 2.63161 8.0782 -61.8182 28.1492 -12.1877 -9.53289 -14.7813 37.464 21.9525 -16.7367 14.4076 3.12568 -6.34423 -23.3613 -0.316702 
7.33774 91.231 -94.9782 -9.32085 2.82824 -103.343 -17.3344 -4.23025 9.14161 3.01474 29.0871 13.2263 14.9681 4.6154 -1.70008 -26.9404 -27.5752 21.5652 1.79647 12.4835 4.64002 0.080516 25.1512 9.99406 -1.99847 -21.9634 32.2025 6.72431e-032 3.23025e-015 -1.19271e-015 -38.0804 -48.5127 -9.813 -34.2553 34.7953 -81.1878 -4.20183 11.4254 -30.716 10.7151 3.5954 22.8996 59.9835 -18.65 70.1727 6.26677 49.384 133.625 1.89255 8.52123 -60.4011 28.2984 -12.8747 -7.42428 -15.1725 37.7647 18.4438 -17.6026 17.5944 3.76658 -8.04919 -26.4884 -4.84362 
8.55671 91.7124 -92.8926 -8.59581 2.65597 -106.271 -17.224 -8.37837 6.85672 -0.254542 30.0606 15.8404 18.2984 9.42513 -2.79868 -27.3067 -28.3631 24.213 1.3109 12.4952 3.85209 -0.247858 25.2113 8.32271 -1.68463 -23.6516 35.8096 7.95139e-016 4.12478e-015 -1.19271e-015 -29.7819 -55.835 -6.65114 -40.4652 32.4812 -70.6015 -3.95428 11.4187 -32.2961 12.4374 3.99577 22.9983 55.1234 -18.2611 67.3303 6.2376 47.4613 134.866 1.30791 8.85954 -59.0484 28.427 -13.3214 -5.33689 -14.241 37.5249 13.4327 -18.5712 21.1955 4.55042 -9.81426 -28.5827 -10.0048 
9.80399 92.1872 -90.8316 -8.06375 3.02943 -108.859 -16.6357 -12.3016 3.93857 -2.5255 31.2515 16.3423 22.1911 16.2301 -4.67201 -28.9938 -31.1899 27.9163 0.813723 12.5905 2.89448 0.00603583 25.478 6.17237 -1.45007 -24.8834 39.628 5.51738e-032 -1.98785e-015 1.59028e-015 -21.9449 -62.3145 -4.50076 -45.4475 25.2355 -57.4072 -4.43008 11.6581 -34.0211 14.0258 4.42268 23.3935 50.4187 -18.3192 65.2941 6.19752 45.9379 135.526 0.735391 9.17223 -57.7949 28.6103 -13.3288 -4.1725 -12.4593 36.8249 8.2293 -19.4178 23.5229 5.15392 -11.0156 -29.25 -14.3014 
10.9845 92.4942 -88.8026 -7.78267 4.10523 -110.719 -15.6166 -15.5165 1.11408 -3.23611 33.4568 13.8681 26.1985 23.9277 -7.2765 -31.9014 -36.1412 31.8553 0.537674 12.8264 1.74975 1.02668 26.0351 3.52902 -1.4423 -25.4479 43.1991 -1.98626e-031 3.57812e-015 3.18055e-015 -19.2837 -53.8148 -8.00632 -41.6527 1.74859 -54.355 -7.8346 12.8016 -33.8054 14.8679 4.72379 23.9806 47.1761 -18.9068 64.8748 6.16541 45.3882 135.292 0.0988263 9.4978 -56.773 28.796 -12.9377 -4.35219 -10.4532 35.9926 4.3532 -19.266 23.7474 5.1487 -11.6869 -29.47 -16.8436 
12.0338 92.5641 -86.8216 -7.84398 5.70082 -111.49 -14.3853 -17.5676 -1.07351 -2.28442 37.2526 9.27801 29.3686 30.1107 -9.79386 -35.0835 -41.4716 34.3545 0.677222 13.2272 0.480563 2.70039 26.8545 0.54597 -1.73141 -25.2363 45.8857 -2.20695e-031 -1.98785e-015 -6.36111e-015 -16.6555 -41.6944 -12.5297 -37.5925 -27.0014 -51.3949 -13.722 14.5822 -32.2168 14.6744 4.77878 24.5325 46.1011 -19.8028 66.1262 5.99496 45.6961 134.424 -0.459817 9.77071 -56.2228 28.7937 -12.3724 -5.46281 -8.60188 35.4238 2.59383 -17.7489 22.2574 4.49954 -12.2278 -30.2183 -17.6393 
12.9703 92.4117 -84.9291 -8.41916 7.34295 -110.979 -13.3286 -18.1106 -2.46083 0.461051 42.186 4.20819 30.9219 32.815 -11.0858 -37.7588 -45.2489 34.4647 1.15959 13.7595 -0.758291 4.63 27.8197 -2.42635 -2.22487 -24.3489 47.102 0 2.38542e-015 -0 -13.4723 -32.9773 -16.9428 -31.8704 -49.5199 -44.1343 -19.1151 15.8853 -29.7609 13.6084 4.58202 24.8756 47.1129 -20.8465 68.3056 5.5757 46.4558 133.585 -0.736838 9.90355 -56.2741 28.3832 -11.9602 -6.49879 -7.00143 35.4307 2.24849 -15.4731 19.8365 3.58143 -12.507 -31.2343 -16.7909 
13.8405 92.0662 -83.1647 -9.59221 8.45328 -109.35 -12.7806 -17.025 -3.07408 4.95773 46.7799 -0.401877 30.62 31.6281 -10.6463 -39.3357 -46.6254 32.8079 1.67342 14.3246 -1.74071 6.26339 28.7782 -4.85219 -2.67892 -23.1748 46.5018 1.59028e-015 6.36111e-015 -0 -11.2197 -28.8512 -20.9921 -21.7842 -59.4907 -32.3424 -21.1202 16.0734 -27.6649 12.229 4.25887 24.947 49.3983 -22.1974 70.3318 4.9819 47.3213 133.468 -0.706897 9.88905 -56.7828 27.4372 -12.0232 -6.56962 -5.59081 36.2235 1.55407 -13.5947 17.1252 2.81992 -12.144 -31.5198 -14.7901 
14.6144 91.6011 -81.4911 -11.092 8.65206 -107.246 -12.7272 -14.6118 -2.90994 10.0108 49.4194 -4.14849 28.5156 27.5138 -8.8424 -39.83 -46.1376 30.2723 2.04487 14.7911 -2.22529 7.10975 29.5659 -6.08652 -2.94102 -22.2478 43.9952 1.59028e-015 2.38542e-015 -6.36111e-015 -10.662 -27.1035 -24.2376 -15.4051 -57.7187 -26.5458 -19.1315 15.2787 -26.4251 11.271 3.99697 24.7505 51.7128 -24.2202 71.3074 4.49987 48.0773 134.417 -0.610344 9.84147 -57.3369 26.0175 -12.7183 -5.53394 -4.32562 37.7279 -0.766019 -13.3109 15.032 2.5276 -11.5118 -30.9496 -13.2271 
15.1736 91.1537 -79.801 -12.3644 7.97295 -105.559 -12.8836 -11.6199 -2.01636 13.2668 49.4797 -6.24145 24.879 21.9505 -6.47261 -40.0041 -44.8886 26.7755 2.3563 15.0293 -2.06241 6.91239 30.0176 -5.62816 -3.15668 -21.9229 39.819 -1.59028e-015 5.56597e-015 6.36111e-015 -12.0142 -27.3203 -26.5496 -15.9872 -46.8893 -30.8926 -14.4925 13.8426 -25.1993 11.3494 3.95648 24.3579 52.9683 -27.2189 70.8298 4.51845 48.7541 136.196 -0.804745 9.93702 -57.3767 24.3947 -13.9904 -4.11366 -3.50775 39.5704 -4.28667 -15.2569 14.5324 2.85295 -11.3735 -30.3875 -13.6783 
15.4393 90.8413 -77.968 -13.0141 6.79522 -105.009 -13.0243 -8.93235 -0.76673 13.0417 47.6165 -5.77943 20.3917 16.1753 -4.27739 -39.7136 -42.909 22.4761 2.68914 14.9817 -1.26318 5.71855 30.0447 -3.45241 -3.65237 -22.1735 34.6716 1.59028e-015 0 -3.18055e-015 -15.4659 -30.8427 -28.1072 -18.4131 -28.9143 -39.4774 -9.33456 12.3146 -23.15 12.6656 4.18637 23.8541 52.8606 -31.1495 69.1423 5.33107 49.7299 138.058 -1.58136 10.3093 -56.3485 22.9331 -15.6314 -3.29987 -3.82733 41.4663 -7.33837 -19.0515 15.5911 3.76933 -11.707 -29.9709 -15.917 
